#!OML:ASF H:\Dans Jumps\Project 1\Capture day 1\Session 1\subject.ASF
:FULLY-SPECIFIED
:DEGREES
447
root 0.556798 17.7212 1.60882 9.02208 0.747362 -0.974424
lowerback 0.323476 -0.178833 -0.559708
upperback 2.04222 -0.269275 2.21613
thorax 1.92597 -0.165125 2.5854
lowerneck -12.2663 -0.896478 -1.69886
upperneck 28.0658 -1.12316 0.874901
head 11.1069 -0.580192 0.465051
rclavicle 1.78906e-015 -7.95139e-015
rhumerus -29.0921 -36.1155 -68.8678
rradius 16.0456
rwrist 59.7426
rhand -22.8882 -28.4676
rfingers 7.12502
rthumb 3.55107 -58.4178
lclavicle 1.78906e-015 -7.95139e-015
lhumerus -24.6035 11.421 84.8145
lradius 9.08707
lwrist -5.42484
lhand -27.199 -7.71624
lfingers 7.12502
lthumb -0.612326 22.2626
rfemur -19.6478 -1.88696 19.4774
rtibia 25.3684
rfoot -12.4781 -0.0357312
rtoes 10.7458
lfemur -18.5552 5.94799 -17.9248
ltibia 20.7125
lfoot -8.53338 3.7675
ltoes -2.33588
448
root 0.558726 17.7273 1.63835 9.09607 0.649945 -0.990044
lowerback 0.260704 -0.134312 -0.586364
upperback 1.9996 -0.209111 2.19879
thorax 1.91448 -0.134927 2.58321
lowerneck -12.3012 -0.910401 -1.71327
upperneck 27.9647 -1.1504 0.918085
head 11.0762 -0.588595 0.479368
rclavicle 1.09332e-015 -2.34566e-014
rhumerus -29.3233 -35.8487 -68.9004
rradius 16.0866
rwrist 59.4705
rhand -22.8045 -28.415
rfingers 7.12502
rthumb 3.63185 -58.3638
lclavicle 1.09332e-015 -2.34566e-014
lhumerus -24.6074 11.4015 84.759
lradius 9.20741
lwrist -5.37423
lhand -27.1744 -7.77382
lfingers 7.12502
lthumb -0.588482 22.2051
rfemur -19.5257 -1.8533 19.4858
rtibia 25.1664
rfoot -12.466 0.0139262
rtoes 10.7793
lfemur -18.3927 5.94489 -17.9075
ltibia 20.5029
lfoot -8.52783 3.87319
ltoes -2.30151
449
root 0.560675 17.7327 1.66733 9.16387 0.550649 -0.99602
lowerback 0.202587 -0.0941662 -0.617679
upperback 1.95659 -0.154561 2.17365
thorax 1.90021 -0.107508 2.57558
lowerneck -12.3354 -0.919105 -1.73335
upperneck 27.861 -1.17037 0.966834
head 11.0445 -0.593672 0.497592
rclavicle 1.68967e-015 -9.93923e-015
rhumerus -29.514 -35.5599 -68.9841
rradius 16.1264
rwrist 59.1972
rhand -22.7396 -28.365
rfingers 7.12502
rthumb 3.69461 -58.3127
lclavicle 1.68967e-015 -9.93923e-015
lhumerus -24.6096 11.3917 84.6944
lradius 9.31473
lwrist -5.35152
lhand -27.1352 -7.80646
lfingers 7.12502
lthumb -0.550649 22.1726
rfemur -19.4106 -1.81388 19.4819
rtibia 24.9913
rfoot -12.4702 0.058716
rtoes 10.7883
lfemur -18.231 5.95768 -17.9022
ltibia 20.3037
lfoot -8.52794 3.96103
ltoes -2.28588
450
root 0.562652 17.7373 1.69598 9.22745 0.453419 -1.00004
lowerback 0.144682 -0.0591649 -0.645917
upperback 1.91328 -0.106799 2.14407
thorax 1.88583 -0.0833806 2.56159
lowerneck -12.3642 -0.924975 -1.7595
upperneck 27.7485 -1.18626 1.02068
head 11.0084 -0.596968 0.519197
rclavicle 8.94531e-016 6.75868e-015
rhumerus -29.6684 -35.2781 -69.1011
rradius 16.1589
rwrist 58.9517
rhand -22.69 -28.3106
rfingers 7.12502
rthumb 3.74248 -58.2575
lclavicle 8.94531e-016 6.75868e-015
lhumerus -24.6042 11.3911 84.6212
lradius 9.40182
lwrist -5.35335
lhand -27.0981 -7.84087
lfingers 7.12502
lthumb -0.514878 22.1383
rfemur -19.3049 -1.7697 19.475
rtibia 24.8421
rfoot -12.4877 0.0974186
rtoes 10.7468
lfemur -18.075 5.98708 -17.9009
ltibia 20.1179
lfoot -8.53486 4.0285
ltoes -2.28853
451
root 0.564851 17.7414 1.72454 9.28583 0.358157 -0.992608
lowerback 0.080197 -0.0299369 -0.679619
upperback 1.87336 -0.0666521 2.1089
thorax 1.87901 -0.0631817 2.54485
lowerneck -12.3935 -0.926391 -1.79297
upperneck 27.6348 -1.19519 1.07892
head 10.972 -0.597369 0.544503
rclavicle 9.93923e-017 6.36111e-015
rhumerus -29.7703 -34.936 -69.2844
rradius 16.2019
rwrist 58.6638
rhand -22.6379 -28.2654
rfingers 7.12502
rthumb 3.79276 -58.2114
lclavicle 9.93923e-017 6.36111e-015
lhumerus -24.5929 11.4029 84.5448
lradius 9.47467
lwrist -5.38055
lhand -27.0692 -7.87889
lfingers 7.12502
lthumb -0.486899 22.1003
rfemur -19.206 -1.73043 19.4544
rtibia 24.7165
rfoot -12.5175 0.137504
rtoes 10.6531
lfemur -17.9253 6.02738 -17.9147
ltibia 19.9506
lfoot -8.54923 4.0819
ltoes -2.30677
452
root 0.567427 17.7447 1.75255 9.33662 0.277831 -0.983467
lowerback 0.0197534 -0.00906617 -0.705947
upperback 1.83447 -0.0376698 2.07249
thorax 1.87153 -0.0484331 2.52256
lowerneck -12.4182 -0.926509 -1.83021
upperneck 27.5188 -1.20068 1.13484
head 10.9339 -0.596908 0.570017
rclavicle -1.98785e-015 1.35174e-014
rhumerus -29.8246 -34.5533 -69.5176
rradius 16.2454
rwrist 58.3517
rhand -22.5866 -28.2213
rfingers 7.12502
rthumb 3.84232 -58.1664
lclavicle -1.98785e-015 1.35174e-014
lhumerus -24.5796 11.4241 84.4663
lradius 9.53837
lwrist -5.43443
lhand -27.0404 -7.90118
lfingers 7.12502
lthumb -0.459119 22.0781
rfemur -19.1119 -1.70481 19.4315
rtibia 24.6137
rfoot -12.5564 0.176638
rtoes 10.5472
lfemur -17.7847 6.06739 -17.9321
ltibia 19.8049
lfoot -8.56886 4.12287
ltoes -2.34671
453
root 0.570237 17.7472 1.78007 9.37869 0.20812 -0.982537
lowerback -0.0373112 0.00554616 -0.719004
upperback 1.79815 -0.017227 2.03934
thorax 1.86521 -0.0377998 2.49606
lowerneck -12.4377 -0.921536 -1.8597
upperneck 27.4012 -1.19708 1.17747
head 10.8939 -0.593131 0.590537
rclavicle -9.93923e-016 -1.63003e-014
rhumerus -29.8391 -34.1776 -69.7731
rradius 16.28
rwrist 58.0662
rhand -22.5252 -28.1731
rfingers 7.12502
rthumb 3.90163 -58.1171
lclavicle -9.93923e-016 -1.63003e-014
lhumerus -24.5614 11.457 84.3903
lradius 9.59346
lwrist -5.5136
lhand -27.0065 -7.91
lfingers 7.12502
lthumb -0.426381 22.0693
rfemur -19.0212 -1.6814 19.4173
rtibia 24.532
rfoot -12.6026 0.209146
rtoes 10.4323
lfemur -17.6548 6.10728 -17.9408
ltibia 19.6874
lfoot -8.59709 4.15796
ltoes -2.39066
454
root 0.573327 17.7487 1.80702 9.41054 0.15119 -0.977884
lowerback -0.0892163 0.0118139 -0.732407
upperback 1.76546 -0.00797021 2.00873
thorax 1.86029 -0.0328277 2.47221
lowerneck -12.4592 -0.910047 -1.87733
upperneck 27.2882 -1.18149 1.20032
head 10.8557 -0.585057 0.603389
rclavicle -1.78906e-015 -6.36111e-015
rhumerus -29.8063 -33.7376 -70.0796
rradius 16.3312
rwrist 57.7299
rhand -22.4449 -28.1228
rfingers 7.12502
rthumb 3.97919 -58.0653
lclavicle -1.78906e-015 -6.36111e-015
lhumerus -24.5384 11.5064 84.3212
lradius 9.64338
lwrist -5.62418
lhand -26.9858 -7.92245
lfingers 7.12502
lthumb -0.406404 22.0569
rfemur -18.9303 -1.66563 19.3984
rtibia 24.4683
rfoot -12.6533 0.236668
rtoes 10.3313
lfemur -17.5371 6.13697 -17.9533
ltibia 19.6052
lfoot -8.63725 4.19497
ltoes -2.44246
455
root 0.576712 17.749 1.83328 9.43209 0.107318 -0.981041
lowerback -0.132612 0.0113634 -0.735278
upperback 1.73643 -0.00791204 1.98469
thorax 1.8548 -0.0323711 2.44903
lowerneck -12.484 -0.893054 -1.88702
upperneck 27.1799 -1.15509 1.20576
head 10.8197 -0.573317 0.609975
rclavicle 1.98785e-015 4.37326e-015
rhumerus -29.7334 -33.2676 -70.4165
rradius 16.3923
rwrist 57.3658
rhand -22.3437 -28.0649
rfingers 7.12502
rthumb 4.0769 -58.0057
lclavicle 1.98785e-015 4.37326e-015
lhumerus -24.5103 11.5696 84.2598
lradius 9.69141
lwrist -5.76096
lhand -26.9606 -7.8944
lfingers 7.12502
lthumb -0.382045 22.085
rfemur -18.8377 -1.65959 19.3882
rtibia 24.4208
rfoot -12.7096 0.259379
rtoes 10.2625
lfemur -17.433 6.15732 -17.957
ltibia 19.5614
lfoot -8.69275 4.23554
ltoes -2.49882
456
root 0.580273 17.7485 1.85892 9.44557 0.0717842 -0.993722
lowerback -0.171423 0.00608582 -0.729042
upperback 1.7117 -0.0145608 1.96817
thorax 1.85149 -0.0352444 2.42838
lowerneck -12.5136 -0.869779 -1.88368
upperneck 27.0755 -1.11716 1.1907
head 10.7857 -0.557418 0.608408
rclavicle -9.93923e-016 7.55382e-015
rhumerus -29.6257 -32.7683 -70.7791
rradius 16.4682
rwrist 56.9602
rhand -22.2279 -27.9983
rfingers 7.12502
rthumb 4.18868 -57.9368
lclavicle -9.93923e-016 7.55382e-015
lhumerus -24.4725 11.6476 84.2097
lradius 9.73609
lwrist -5.91289
lhand -26.9245 -7.84015
lfingers 7.12502
lthumb -0.347123 22.1393
rfemur -18.7476 -1.65726 19.3887
rtibia 24.3901
rfoot -12.7699 0.275162
rtoes 10.214
lfemur -17.3413 6.17211 -17.95
ltibia 19.5516
lfoot -8.76247 4.28069
ltoes -2.56275
457
root 0.583945 17.7472 1.88401 9.45007 0.0433069 -1.00873
lowerback -0.204445 -0.00213615 -0.72063
upperback 1.69044 -0.0252687 1.9563
thorax 1.84868 -0.0401862 2.41122
lowerneck -12.5486 -0.843077 -1.88057
upperneck 26.9783 -1.07269 1.16982
head 10.7553 -0.539214 0.605644
rclavicle -9.93923e-016 5.96354e-015
rhumerus -29.4933 -32.2245 -71.1685
rradius 16.5697
rwrist 56.4783
rhand -22.0913 -27.9304
rfingers 7.12502
rthumb 4.3206 -57.8663
lclavicle -9.93923e-016 5.96354e-015
lhumerus -24.4296 11.7337 84.1706
lradius 9.78387
lwrist -6.07297
lhand -26.8826 -7.75845
lfingers 7.12502
lthumb -0.306686 22.2211
rfemur -18.6567 -1.66214 19.3925
rtibia 24.3744
rfoot -12.8344 0.287049
rtoes 10.1891
lfemur -17.2578 6.18807 -17.9411
ltibia 19.5707
lfoot -8.84663 4.32423
ltoes -2.63887
458
root 0.587544 17.7454 1.90851 9.44595 0.0208353 -1.0217
lowerback -0.230373 -0.0122929 -0.715666
upperback 1.67099 -0.0385558 1.94663
thorax 1.84387 -0.0464882 2.3982
lowerneck -12.5831 -0.816226 -1.87856
upperneck 26.8822 -1.0272 1.14679
head 10.7254 -0.520892 0.602432
rclavicle 1.09332e-015 1.98785e-015
rhumerus -29.3529 -31.7032 -71.5504
rradius 16.6812
rwrist 55.9819
rhand -21.9617 -27.8501
rfingers 7.12502
rthumb 4.44571 -57.7834
lclavicle 1.09332e-015 1.98785e-015
lhumerus -24.3821 11.8225 84.1374
lradius 9.82577
lwrist -6.24613
lhand -26.8465 -7.69108
lfingers 7.12502
lthumb -0.271871 22.2885
rfemur -18.5666 -1.6728 19.3952
rtibia 24.3737
rfoot -12.9024 0.294159
rtoes 10.1751
lfemur -17.1775 6.20762 -17.9344
ltibia 19.6089
lfoot -8.94239 4.36242
ltoes -2.71276
